<svg width="16" height="16" viewBox="0 0 16 16" fill="none" xmlns="http://www.w3.org/2000/svg">
<path fill-rule="evenodd" clip-rule="evenodd" d="M8.00001 2.66683C5.05449 2.66683 2.66668 5.05464 2.66668 8.00016C2.66668 10.9457 5.05449 13.3335 8.00001 13.3335C10.9455 13.3335 13.3333 10.9457 13.3333 8.00016C13.3333 5.05464 10.9455 2.66683 8.00001 2.66683ZM1.33334 8.00016C1.33334 4.31826 4.31811 1.3335 8.00001 1.3335C11.6819 1.3335 14.6667 4.31826 14.6667 8.00016C14.6667 11.6821 11.6819 14.6668 8.00001 14.6668C4.31811 14.6668 1.33334 11.6821 1.33334 8.00016ZM6.93861 5.00016C6.93861 4.63197 7.23709 4.3335 7.60528 4.3335H7.61194C7.98013 4.3335 8.27861 4.63197 8.27861 5.00016C8.27861 5.36835 7.98013 5.66683 7.61194 5.66683H7.60528C7.23709 5.66683 6.93861 5.36835 6.93861 5.00016ZM6.00001 7.3335C6.00001 6.96531 6.29849 6.66683 6.66668 6.66683H8.00001C8.3682 6.66683 8.66668 6.96531 8.66668 7.3335V10.0002H9.33334C9.70153 10.0002 10 10.2986 10 10.6668C10 11.035 9.70153 11.3335 9.33334 11.3335H6.66668C6.29849 11.3335 6.00001 11.035 6.00001 10.6668C6.00001 10.2986 6.29849 10.0002 6.66668 10.0002H7.33334V8.00016H6.66668C6.29849 8.00016 6.00001 7.70169 6.00001 7.3335Z" fill="#656E86"/>
</svg>
