<svg width="32" height="32" viewBox="0 0 32 32" fill="none" xmlns="http://www.w3.org/2000/svg">
<path d="M25.436 15.2827C25.2823 12.7671 24.3254 10.6298 22.5654 8.87069C20.8054 7.11158 18.6685 6.15469 16.1547 6.00002V4.66669C17.5992 4.73513 18.9503 5.05602 20.208 5.62935C21.4676 6.20269 22.572 6.96402 23.5214 7.91335C24.4707 8.86269 25.2325 9.96713 25.8067 11.2267C26.38 12.4854 26.7009 13.8369 26.7694 15.2814L25.436 15.2827ZM20.1027 15.2827C19.9489 14.2569 19.5089 13.3765 18.7827 12.6414C18.0565 11.9062 17.1805 11.4702 16.1547 11.3334V10C17.5547 10.1369 18.7463 10.7014 19.7294 11.6934C20.7125 12.6854 21.2814 13.8818 21.436 15.2827H20.1027ZM25.6 26.6667C23.1983 26.6667 20.7903 26.1138 18.376 25.008C15.9618 23.9022 13.7374 22.332 11.7027 20.2974C9.68493 18.2627 8.11915 16.0311 7.00537 13.6027C5.89071 11.1734 5.33337 8.77247 5.33337 6.40002V5.33335H11.252L12.3827 10.7774L8.78804 14.124C9.39604 15.1782 10.0258 16.1414 10.6774 17.0134C11.3289 17.8854 12.0076 18.6716 12.7134 19.372C13.4263 20.1187 14.2298 20.8165 15.124 21.4654C16.0183 22.1142 17.0387 22.7542 18.1854 23.3854L21.6667 19.7747L26.6667 20.7827V26.6667H25.6ZM8.16137 12.872L10.9507 10.312L10.18 6.66669H6.67337C6.70004 7.68358 6.83737 8.70802 7.08537 9.74002C7.33249 10.7711 7.69115 11.8151 8.16137 12.872ZM19.428 23.9854C20.2485 24.3969 21.1774 24.7182 22.2147 24.9494C23.252 25.1805 24.2916 25.3036 25.3334 25.3187V21.8454L22.1494 21.212L19.428 23.9854Z" fill="#F63F2E"/>
</svg>
