<svg width="32" height="32" viewBox="0 0 32 32" fill="none" xmlns="http://www.w3.org/2000/svg">
<path d="M17.7227 15.9998L12.0614 10.3385C11.9369 10.214 11.8702 10.0612 11.8614 9.87982C11.8525 9.69849 11.9191 9.53671 12.0614 9.39449C12.2036 9.25226 12.3609 9.18115 12.5334 9.18115C12.7058 9.18115 12.8631 9.25226 13.0054 9.39449L18.856 15.2465C18.9725 15.362 19.0542 15.4807 19.1014 15.6025C19.1485 15.7243 19.172 15.8567 19.172 15.9998C19.172 16.1429 19.1485 16.2754 19.1014 16.3972C19.0542 16.5189 18.9725 16.638 18.856 16.7545L13.0054 22.6052C12.8809 22.7296 12.728 22.7963 12.5467 22.8052C12.3654 22.814 12.2036 22.7474 12.0614 22.6052C11.9191 22.4629 11.848 22.3056 11.848 22.1332C11.848 21.9607 11.9191 21.8034 12.0614 21.6612L17.7227 15.9998Z" fill="#F3F4F6"/>
</svg>
